<svg xmlns="http://www.w3.org/2000/svg" xmlns:xlink="http://www.w3.org/1999/xlink" width="500" zoomAndPan="magnify" viewBox="0 0 375 374.999991" height="500" preserveAspectRatio="xMidYMid meet" version="1.0"><defs><g/><clipPath id="6d424a7d45"><path d="M 42 197 L 98 197 L 98 261.449219 L 42 261.449219 Z M 42 197 " clip-rule="nonzero"/></clipPath><clipPath id="dd1656abe4"><path d="M 41.980469 195.449219 L 102.433594 195.449219 L 102.433594 261.449219 L 41.980469 261.449219 Z M 41.980469 195.449219 " clip-rule="nonzero"/></clipPath><clipPath id="e1b60abfb5"><path d="M 48 195.449219 L 106 195.449219 L 106 261.449219 L 48 261.449219 Z M 48 195.449219 " clip-rule="nonzero"/></clipPath><clipPath id="91a480d5e2"><path d="M 43.679688 195.449219 L 105.621094 195.449219 L 105.621094 261.449219 L 43.679688 261.449219 Z M 43.679688 195.449219 " clip-rule="nonzero"/></clipPath></defs><g clip-path="url(#6d424a7d45)"><path fill="#000000" d="M 63.007812 211.328125 C 63.507812 211.984375 63.941406 212.691406 64.167969 213.578125 C 64.402344 214.449219 64.472656 215.464844 64.582031 216.441406 C 64.710938 217.40625 64.871094 218.34375 65.234375 219.113281 C 65.601562 219.875 66.019531 220.597656 66.429688 221.320312 C 67.265625 222.761719 68.183594 224.140625 69.195312 225.4375 C 70.191406 226.738281 71.265625 227.984375 72.328125 229.238281 C 74.445312 231.746094 76.601562 234.222656 78.832031 236.640625 C 81.058594 239.054688 83.339844 241.433594 85.605469 243.816406 C 87.863281 246.207031 90.113281 248.609375 92.261719 251.089844 C 93.34375 252.328125 94.402344 253.589844 95.4375 254.859375 C 95.960938 255.492188 96.46875 256.136719 96.980469 256.78125 L 97.359375 257.261719 C 97.480469 257.433594 97.648438 257.5625 97.699219 257.785156 C 97.800781 258.238281 97.59375 258.945312 96.660156 260.261719 L 96.238281 260.617188 C 94.773438 261.3125 94.042969 261.390625 93.613281 261.214844 C 93.402344 261.125 93.304688 260.941406 93.15625 260.789062 L 92.75 260.332031 C 92.207031 259.710938 91.65625 259.105469 91.121094 258.476562 C 90.050781 257.238281 89 255.972656 87.964844 254.699219 C 85.894531 252.152344 83.917969 249.515625 81.957031 246.878906 C 80.007812 244.230469 78.054688 241.574219 76.066406 238.960938 C 74.070312 236.34375 72.007812 233.792969 69.90625 231.269531 C 68.851562 230.007812 67.8125 228.734375 66.707031 227.523438 C 65.601562 226.304688 64.40625 225.164062 63.128906 224.089844 C 62.492188 223.558594 61.851562 223.019531 61.164062 222.527344 C 60.472656 222.035156 59.574219 221.714844 58.644531 221.421875 C 57.707031 221.144531 56.722656 220.894531 55.902344 220.511719 C 55.066406 220.140625 54.445312 219.589844 53.890625 218.980469 C 51.585938 216.628906 49.40625 214.167969 47.402344 211.566406 C 45.46875 209.011719 43.625 206.378906 42.179688 203.414062 C 42.113281 203.28125 42.148438 203.113281 42.265625 203.015625 L 42.679688 202.667969 C 42.820312 202.550781 43.027344 202.566406 43.144531 202.707031 L 55.035156 216.875 C 55.277344 217.167969 55.714844 217.207031 56.003906 216.960938 C 56.296875 216.714844 56.335938 216.28125 56.089844 215.992188 L 44.324219 201.710938 C 44.210938 201.570312 44.230469 201.367188 44.367188 201.25 L 44.882812 200.816406 C 45.023438 200.703125 45.226562 200.71875 45.34375 200.855469 L 57.238281 214.78125 C 57.480469 215.074219 57.917969 215.113281 58.207031 214.867188 C 58.5 214.625 58.539062 214.1875 58.292969 213.894531 L 46.648438 199.761719 C 46.535156 199.621094 46.554688 199.417969 46.691406 199.300781 L 47.207031 198.867188 C 47.347656 198.753906 47.550781 198.769531 47.667969 198.90625 L 59.683594 212.976562 C 59.925781 213.269531 60.363281 213.304688 60.652344 213.0625 C 60.945312 212.816406 60.984375 212.382812 60.738281 212.089844 L 48.847656 197.921875 C 48.730469 197.78125 48.75 197.574219 48.890625 197.457031 L 49.300781 197.113281 C 49.417969 197.015625 49.585938 197.007812 49.710938 197.097656 C 52.378906 199.03125 54.648438 201.308594 56.828125 203.65625 C 59.042969 206.082031 61.09375 208.652344 63.007812 211.328125 " fill-opacity="1" fill-rule="nonzero"/></g><g clip-path="url(#dd1656abe4)"><path stroke-linecap="butt" transform="matrix(0.00395833, 0, 0, -0.00395833, 41.98001, 261.52882)" fill="none" stroke-linejoin="miter" d="M 5312.290825 12682.290053 C 5438.606705 12516.50046 5548.146258 12337.881911 5605.383141 12113.868592 C 5664.59371 11893.802645 5682.35688 11636.236671 5709.988479 11390.51281 C 5742.554292 11146.762635 5783.014847 10909.92036 5874.791229 10715.512326 C 5967.554454 10523.077977 6073.146635 10340.512056 6176.76513 10157.946136 C 6387.949492 9793.801138 6619.857553 9445.445624 6875.449842 9117.81381 C 7127.09476 8789.195153 7398.476533 8474.392296 7666.897779 8157.615753 C 8201.766584 7524.062666 8746.503817 6898.404322 9309.991063 6287.548621 C 9872.491467 5677.679762 10447.820827 5076.692489 11021.176502 4474.718372 C 11591.571648 3870.77057 12159.993109 3263.86224 12702.756656 2637.217053 C 12976.112116 2324.387881 13242.559676 2005.637653 13505.059864 1684.913738 C 13637.296801 1525.045202 13765.586367 1362.216138 13894.862775 1199.387074 L 13990.586528 1078.005408 C 14021.178655 1034.584324 14063.612896 1002.018511 14076.441853 945.768471 C 14101.112923 831.294704 14049.797097 652.676155 13813.941665 320.110127 L 13707.362641 230.307431 C 13337.296586 54.64941 13152.756979 34.912554 13044.20427 79.32048 C 12990.914758 102.017865 12966.243688 148.399477 12928.743661 186.886347 L 12826.112008 302.346956 C 12688.940857 459.254964 12549.79602 612.2156 12414.598555 771.097293 C 12144.203624 1083.926465 11878.742907 1403.663536 11617.229562 1725.374294 C 11094.20287 2368.795808 10594.860407 3034.914707 10099.465314 3701.033606 C 9607.03075 4370.113034 9113.609343 5041.166147 8611.306351 5701.36399 C 8107.029673 6362.548675 7585.976668 7006.957032 7055.055234 7644.45749 C 6788.607675 7963.207718 6526.107486 8284.918476 6246.83097 8589.852905 C 5967.554454 8898.734706 5665.580553 9186.892807 5342.882953 9458.274581 C 5182.027574 9592.485204 5020.185353 9728.669512 4846.501017 9853.011706 C 4671.829839 9977.353901 4444.855992 10058.275012 4209.987403 10132.288223 C 3973.145127 10202.354062 3724.460738 10264.52516 3517.223747 10362.222598 C 3306.039385 10455.972666 3149.131378 10595.117502 3008.999698 10749.064981 C 2426.762438 11343.144355 1876.104148 11964.855328 1369.853785 12622.092641 C 881.366592 13267.487842 415.576784 13932.619898 50.444943 14680.646751 C 33.668615 14715.186249 42.550201 14757.62049 72.155485 14782.29156 L 176.760823 14870.120571 C 212.287165 14899.725855 264.589834 14895.778484 294.195118 14860.252143 L 3298.144643 11280.973258 C 3359.328897 11206.960047 3469.855292 11197.091619 3542.881661 11259.262716 C 3616.894872 11320.44697 3626.7633 11430.973365 3564.592202 11503.999734 L 592.221648 15111.89706 C 563.603206 15147.423401 568.53742 15198.739228 603.076919 15228.344512 L 733.34017 15337.884064 C 768.866511 15366.502506 820.182338 15362.555135 849.787622 15328.015636 L 3854.72399 11809.921006 C 3915.908244 11735.907795 4026.434639 11726.039367 4099.461007 11788.210464 C 4173.474218 11849.394718 4183.342647 11959.921113 4121.171549 12032.947482 L 1179.393122 15604.331624 C 1150.77468 15639.857965 1155.708894 15691.173792 1190.248393 15720.779076 L 1320.511644 15830.318628 C 1356.037986 15858.93707 1407.353812 15854.989699 1436.959096 15820.4502 L 4472.487591 12265.842386 C 4533.671845 12191.829175 4644.198241 12182.947589 4717.224609 12244.131844 C 4791.23782 12306.302941 4801.106248 12415.842493 4738.935151 12489.855704 L 1734.985626 16069.134589 C 1705.380342 16104.660931 1710.314556 16156.9636 1745.840897 16186.568884 L 1849.459392 16273.411052 C 1879.064677 16298.082122 1921.498918 16300.055808 1953.077888 16277.358423 C 2627.09153 15788.87123 3200.447204 15213.54187 3751.105494 14620.449339 C 4310.64537 14007.619952 4828.737847 13358.27738 5312.290825 12682.290053 Z M 5312.290825 12682.290053 " stroke="#231815" stroke-width="84.099998" stroke-opacity="1" stroke-miterlimit="10"/></g><g clip-path="url(#e1b60abfb5)"><path fill="#000000" d="M 50.6875 254.925781 C 50.164062 255.558594 49.65625 256.207031 49.144531 256.851562 L 48.761719 257.328125 C 48.640625 257.5 48.476562 257.628906 48.425781 257.851562 C 48.324219 258.308594 48.53125 259.015625 49.464844 260.328125 L 49.886719 260.683594 C 51.347656 261.378906 52.082031 261.460938 52.511719 261.28125 C 52.722656 261.191406 52.820312 261.007812 52.96875 260.855469 L 53.375 260.398438 C 53.914062 259.78125 54.46875 259.171875 55 258.546875 C 56.070312 257.304688 57.121094 256.042969 58.160156 254.765625 C 60.230469 252.21875 62.203125 249.582031 64.164062 246.945312 C 66.113281 244.296875 68.066406 241.644531 70.058594 239.03125 C 72.054688 236.414062 74.117188 233.859375 76.21875 231.339844 C 76.332031 231.199219 76.449219 231.0625 76.5625 230.921875 C 78.195312 228.957031 80.183594 227.320312 82.421875 226.085938 C 87.59375 223.226562 98.234375 216.164062 104.625 203.652344 C 106.492188 200 104.792969 197.320312 103.554688 196 C 103.042969 195.460938 102.175781 195.492188 101.699219 196.0625 C 97.109375 201.535156 74.746094 228.179688 73.796875 229.304688 C 71.679688 231.8125 69.523438 234.289062 67.289062 236.707031 C 65.0625 239.121094 62.785156 241.503906 60.519531 243.886719 C 58.261719 246.277344 56.007812 248.675781 53.859375 251.160156 C 52.777344 252.398438 51.722656 253.65625 50.6875 254.925781 " fill-opacity="1" fill-rule="nonzero"/></g><g clip-path="url(#91a480d5e2)"><path stroke-linecap="butt" transform="matrix(0.00405337, 0, 0, -0.00405337, 41.98001, 261.52882)" fill="none" stroke-linejoin="miter" d="M 2148.208644 1629.023452 C 2019.072356 1472.903463 1893.790884 1312.928659 1767.545708 1153.917559 L 1673.102751 1036.345716 C 1643.227939 993.942756 1602.752386 962.140536 1590.224239 907.209429 C 1565.167944 794.456103 1616.244237 620.025745 1846.569406 296.221324 L 1950.649398 208.524293 C 2311.074558 36.985046 2492.250841 16.74727 2598.258241 61.077637 C 2650.298238 83.242821 2674.390828 128.536892 2711.011567 166.121333 L 2811.236745 278.874659 C 2944.227846 431.139833 3081.073763 581.4776 3212.137457 735.670182 C 3476.192253 1042.127938 3736.392234 1353.404212 3991.773698 1668.535301 C 4502.536624 2296.870071 4989.20696 2947.370025 5472.986185 3597.869978 C 5953.874299 4251.261043 6435.726117 4905.615811 6927.214971 5550.333543 C 7419.667528 6196.978683 7928.503048 6826.277156 8446.975604 7448.829705 C 8474.923009 7482.559332 8503.834118 7516.288959 8531.781523 7550.98229 C 8934.609643 8035.725219 9425.134793 8439.517042 9977.336976 8744.047391 C 11253.280589 9449.478452 13879.372995 11191.854624 15455.028439 14278.597368 C 15915.678777 15179.660267 15497.431399 15840.76096 15190.973643 16166.492789 C 15065.69217 16300.447594 14851.749963 16291.774262 14733.214416 16152.037235 C 13600.862645 14800.924738 8084.623037 8227.502242 7849.47935 7949.955595 C 7327.151979 7331.257861 6795.187573 6720.269757 6243.949093 6123.737206 C 5694.638021 5528.16836 5132.798802 4940.309142 4573.850694 4352.449925 C 4016.829992 3762.6633 3460.772995 3170.949268 2930.735995 2558.033756 C 2664.753792 2252.539704 2403.590107 1942.227133 2148.208644 1629.023452 Z M 2148.208644 1629.023452 " stroke="#231815" stroke-width="82.129997" stroke-opacity="1" stroke-miterlimit="10"/></g><g fill="#ff9100" fill-opacity="1"><g transform="translate(28.848809, 170.758436)"><g><path d="M 123.234375 -80.875 L 118.609375 -79.875 C 113.617188 -70.632812 109.109375 -58.828125 105.078125 -44.453125 C 103.679688 -39.460938 101.550781 -33.90625 98.6875 -27.78125 C 95.832031 -21.65625 92.425781 -16.023438 88.46875 -10.890625 C 73.863281 7.816406 55.191406 17.171875 32.453125 17.171875 C 21.890625 17.171875 13.492188 14.894531 7.265625 10.34375 C 3.003906 7.1875 0.175781 3.078125 -1.21875 -1.984375 C -1.726562 -3.816406 -1.984375 -6.160156 -1.984375 -9.015625 C -1.984375 -11.878906 -1.234375 -15.273438 0.265625 -19.203125 C 1.773438 -23.128906 4.21875 -26.613281 7.59375 -29.65625 C 10.96875 -32.695312 13.644531 -34.289062 15.625 -34.4375 C 16.351562 -34.4375 16.789062 -34.328125 16.9375 -34.109375 C 17.164062 -33.816406 16.765625 -33.414062 15.734375 -32.90625 C 13.460938 -31.945312 10.929688 -29.78125 8.140625 -26.40625 C 3.816406 -21.269531 1.65625 -15.472656 1.65625 -9.015625 C 1.65625 -4.109375 3.226562 0.101562 6.375 3.625 C 10.34375 8.03125 15.957031 11.039062 23.21875 12.65625 C 26.445312 13.382812 28.90625 13.75 30.59375 13.75 C 32.28125 13.75 34.019531 13.726562 35.8125 13.6875 C 37.613281 13.65625 39.976562 13.273438 42.90625 12.546875 C 49 11.003906 54.832031 8.507812 60.40625 5.0625 C 65.976562 1.613281 70.742188 -2.109375 74.703125 -6.109375 C 78.671875 -10.109375 82.34375 -14.523438 85.71875 -19.359375 C 91.4375 -27.648438 95.765625 -35.796875 98.703125 -43.796875 C 103.835938 -57.359375 109.335938 -69.203125 115.203125 -79.328125 C 103.535156 -76.910156 94.253906 -74.234375 87.359375 -71.296875 C 80.316406 -68.210938 74.851562 -64.765625 70.96875 -60.953125 C 66.125 -56.035156 63.003906 -50.5 61.609375 -44.34375 C 61.171875 -42.582031 60.953125 -40.96875 60.953125 -39.5 C 60.953125 -36.414062 61.796875 -33.921875 63.484375 -32.015625 C 65.171875 -30.109375 66.984375 -29.15625 68.921875 -29.15625 C 70.867188 -29.15625 72.960938 -29.59375 75.203125 -30.46875 C 77.441406 -31.351562 79.40625 -32.820312 81.09375 -34.875 C 83.4375 -37.882812 84.609375 -41.441406 84.609375 -45.546875 C 84.609375 -47.609375 84.316406 -48.894531 83.734375 -49.40625 C 83.585938 -49.625 83.660156 -49.953125 83.953125 -50.390625 C 84.679688 -51.492188 85.378906 -51.492188 86.046875 -50.390625 C 86.992188 -48.554688 87.46875 -46.554688 87.46875 -44.390625 C 87.46875 -42.234375 86.773438 -39.867188 85.390625 -37.296875 C 82.890625 -32.609375 79.289062 -29.382812 74.59375 -27.625 C 72.25 -26.738281 69.738281 -26.296875 67.0625 -26.296875 C 64.382812 -26.296875 61.503906 -27.503906 58.421875 -29.921875 C 55.335938 -32.347656 53.796875 -35.722656 53.796875 -40.046875 C 53.796875 -41.367188 53.945312 -42.800781 54.25 -44.34375 C 58.425781 -63.195312 79.332031 -75.8125 116.96875 -82.1875 C 117.625 -83.582031 118.8125 -85.304688 120.53125 -87.359375 C 122.257812 -89.421875 123.726562 -90.648438 124.9375 -91.046875 C 126.144531 -91.453125 127.15625 -91.65625 127.96875 -91.65625 C 130.382812 -91.65625 131.628906 -90.628906 131.703125 -88.578125 C 131.703125 -86.378906 130.820312 -84.691406 129.0625 -83.515625 C 127.445312 -82.484375 125.503906 -81.601562 123.234375 -80.875 Z M 120.484375 -82.640625 C 125.472656 -83.660156 127.859375 -85.050781 127.640625 -86.8125 C 127.492188 -87.695312 127 -88.140625 126.15625 -88.140625 C 125.3125 -88.140625 123.421875 -86.304688 120.484375 -82.640625 Z M 120.484375 -82.640625 "/></g></g></g><g fill="#ff9100" fill-opacity="1"><g transform="translate(129.193827, 170.758436)"><g><path d="M 35.546875 -38.40625 L 34.984375 -36.421875 C 31.242188 -24.753906 27.796875 -16.242188 24.640625 -10.890625 C 20.023438 -3.117188 15.1875 0.765625 10.125 0.765625 C 6.019531 0.765625 3.96875 -1.210938 3.96875 -5.171875 C 3.96875 -8.179688 5.066406 -12.835938 7.265625 -19.140625 C 6.523438 -17.972656 5.953125 -17.585938 5.546875 -17.984375 C 5.148438 -18.390625 5.0625 -18.882812 5.28125 -19.46875 L 7.265625 -23.21875 C 8.660156 -26.082031 9.359375 -28.941406 9.359375 -31.796875 C 9.359375 -34.660156 8.769531 -36.347656 7.59375 -36.859375 C 11.988281 -37.585938 14.550781 -37.929688 15.28125 -37.890625 C 16.019531 -37.859375 16.476562 -37.550781 16.65625 -36.96875 C 16.84375 -36.382812 16.9375 -35.722656 16.9375 -34.984375 C 16.9375 -30.515625 15.78125 -25.234375 13.46875 -19.140625 C 11.164062 -13.054688 10.015625 -8.96875 10.015625 -6.875 C 10.015625 -4.78125 10.34375 -3.566406 11 -3.234375 C 11.664062 -2.910156 12.328125 -2.75 12.984375 -2.75 C 14.890625 -2.75 17.050781 -4.289062 19.46875 -7.375 C 21.894531 -10.457031 24.316406 -15.003906 26.734375 -21.015625 C 25.710938 -23.359375 25.203125 -25.425781 25.203125 -27.21875 C 25.203125 -29.019531 25.421875 -30.617188 25.859375 -32.015625 C 27.179688 -36.203125 29.269531 -38.804688 32.125 -39.828125 C 32.71875 -40.046875 33.269531 -40.15625 33.78125 -40.15625 C 34.957031 -40.15625 35.546875 -39.570312 35.546875 -38.40625 Z M 35.546875 -38.40625 "/></g></g></g><g fill="#ff9100" fill-opacity="1"><g transform="translate(158.021012, 170.758436)"><g><path d="M 26.296875 -38.515625 C 31.648438 -38.515625 34.328125 -35.140625 34.328125 -28.390625 C 34.328125 -25.304688 33.519531 -22.003906 31.90625 -18.484375 C 29.851562 -13.710938 26.773438 -9.382812 22.671875 -5.5 C 23.617188 -3.664062 25.34375 -2.75 27.84375 -2.75 C 29.820312 -2.75 31.691406 -3.738281 33.453125 -5.71875 C 35.648438 -7.988281 37.222656 -9.984375 38.171875 -11.703125 C 39.128906 -13.429688 39.828125 -14.695312 40.265625 -15.5 C 40.710938 -16.3125 41.28125 -17.46875 41.96875 -18.96875 C 42.664062 -20.476562 43.085938 -21.394531 43.234375 -21.71875 C 43.390625 -22.050781 43.648438 -22.21875 44.015625 -22.21875 C 44.742188 -22.300781 45.109375 -22.046875 45.109375 -21.453125 C 45.109375 -21.234375 45.035156 -20.976562 44.890625 -20.6875 L 44.234375 -19.140625 C 43.796875 -18.117188 43.460938 -17.382812 43.234375 -16.9375 C 43.015625 -16.5 42.628906 -15.710938 42.078125 -14.578125 C 41.535156 -13.441406 41.0625 -12.539062 40.65625 -11.875 C 40.25 -11.21875 39.695312 -10.335938 39 -9.234375 C 38.300781 -8.140625 37.675781 -7.257812 37.125 -6.59375 C 36.582031 -5.9375 35.90625 -5.203125 35.09375 -4.390625 C 34.289062 -3.585938 33.523438 -2.96875 32.796875 -2.53125 C 30.953125 -1.425781 29.226562 -0.875 27.625 -0.875 C 24.613281 -0.875 22.265625 -1.828125 20.578125 -3.734375 C 17.203125 -1.242188 14.082031 0 11.21875 0 C 5.863281 0 3.1875 -3.375 3.1875 -10.125 C 3.1875 -13.207031 3.992188 -16.507812 5.609375 -20.03125 C 7.804688 -25.164062 10.90625 -29.53125 14.90625 -33.125 C 18.90625 -36.71875 22.703125 -38.515625 26.296875 -38.515625 Z M 27.515625 -35.09375 C 25.523438 -35.09375 23.171875 -33.769531 20.453125 -31.125 C 17.742188 -28.488281 15.328125 -24.898438 13.203125 -20.359375 C 10.640625 -15.078125 9.359375 -10.75 9.359375 -7.375 C 9.359375 -4 10.640625 -2.3125 13.203125 -2.3125 C 15.035156 -2.3125 17.085938 -3.300781 19.359375 -5.28125 C 18.191406 -6.96875 17.609375 -8.765625 17.609375 -10.671875 C 17.753906 -13.828125 19.035156 -15.40625 21.453125 -15.40625 C 22.410156 -15.40625 23.195312 -15.070312 23.8125 -14.40625 C 24.4375 -13.75 24.75 -13.144531 24.75 -12.59375 C 24.75 -12.039062 24.675781 -11.472656 24.53125 -10.890625 C 25.78125 -12.722656 27.210938 -15.328125 28.828125 -18.703125 C 30.660156 -22.441406 31.578125 -26.109375 31.578125 -29.703125 C 31.578125 -33.296875 30.222656 -35.09375 27.515625 -35.09375 Z M 27.515625 -35.09375 "/></g></g></g><g fill="#ff9100" fill-opacity="1"><g transform="translate(194.880197, 170.758436)"><g><path d="M 21.34375 -42.796875 C 20.320312 -41.921875 19.1875 -41.484375 17.9375 -41.484375 C 16.6875 -41.484375 15.691406 -41.921875 14.953125 -42.796875 C 14.222656 -43.679688 13.929688 -44.75 14.078125 -46 C 14.304688 -47.238281 14.929688 -48.296875 15.953125 -49.171875 C 16.984375 -50.054688 18.117188 -50.5 19.359375 -50.5 C 20.609375 -50.5 21.617188 -50.054688 22.390625 -49.171875 C 23.160156 -48.296875 23.4375 -47.234375 23.21875 -45.984375 C 23 -44.742188 22.375 -43.679688 21.34375 -42.796875 Z M 10.5625 -2.421875 C 11.957031 -2.421875 13.425781 -3.117188 14.96875 -4.515625 C 17.675781 -7.222656 21.125 -12.757812 25.3125 -21.125 C 25.820312 -22.226562 26.332031 -22.554688 26.84375 -22.109375 C 26.988281 -21.960938 27.0625 -21.722656 27.0625 -21.390625 C 27.0625 -21.066406 26.769531 -20.265625 26.1875 -18.984375 C 25.601562 -17.703125 25.070312 -16.546875 24.59375 -15.515625 C 24.113281 -14.484375 23.195312 -12.8125 21.84375 -10.5 C 20.488281 -8.195312 19.257812 -6.421875 18.15625 -5.171875 C 15.144531 -1.722656 12.300781 0 9.625 0 C 6.945312 0 5.019531 -0.804688 3.84375 -2.421875 C 2.675781 -4.035156 2.09375 -5.832031 2.09375 -7.8125 C 2.09375 -9.789062 2.566406 -11.953125 3.515625 -14.296875 L 10.5625 -32.234375 C 10.707031 -32.679688 10.78125 -33.269531 10.78125 -34 C 10.78125 -34.726562 10.34375 -35.679688 9.46875 -36.859375 L 15.515625 -36.96875 C 17.203125 -36.96875 18.191406 -36.65625 18.484375 -36.03125 C 18.773438 -35.40625 18.554688 -34.4375 17.828125 -33.125 L 9.015625 -12.546875 C 7.773438 -9.828125 7.15625 -7.515625 7.15625 -5.609375 C 7.15625 -3.484375 8.289062 -2.421875 10.5625 -2.421875 Z M 10.5625 -2.421875 "/></g></g></g><g fill="#ff9100" fill-opacity="1"><g transform="translate(214.024971, 170.758436)"><g><path d="M 21.125 -44.125 C 21.125 -40.820312 19.035156 -37.703125 14.859375 -34.765625 C 16.316406 -34.691406 18.273438 -34.65625 20.734375 -34.65625 C 23.191406 -34.65625 26.289062 -34.835938 30.03125 -35.203125 C 30.1875 -34.984375 30.265625 -34.394531 30.265625 -33.4375 C 30.265625 -32.488281 29.820312 -31.078125 28.9375 -29.203125 C 28.0625 -27.335938 27.273438 -25.726562 26.578125 -24.375 C 25.878906 -23.019531 25.21875 -21.734375 24.59375 -20.515625 C 23.96875 -19.304688 23.269531 -17.820312 22.5 -16.0625 C 21.726562 -14.300781 21.085938 -12.6875 20.578125 -11.21875 C 18.742188 -5.644531 19.035156 -2.859375 21.453125 -2.859375 C 24.535156 -2.859375 29.082031 -8.984375 35.09375 -21.234375 C 35.613281 -22.191406 36.035156 -22.554688 36.359375 -22.328125 C 36.691406 -22.109375 36.859375 -21.832031 36.859375 -21.5 C 36.859375 -21.175781 36.378906 -20.039062 35.421875 -18.09375 C 34.472656 -16.15625 33.445312 -14.15625 32.34375 -12.09375 C 31.25 -10.039062 29.523438 -7.660156 27.171875 -4.953125 C 24.390625 -1.578125 21.710938 0.109375 19.140625 0.109375 C 16.285156 0.109375 14.304688 -1.613281 13.203125 -5.0625 C 12.984375 -5.71875 12.875 -6.707031 12.875 -8.03125 C 12.875 -9.351562 13.296875 -11.113281 14.140625 -13.3125 C 14.984375 -15.507812 16.320312 -18.1875 18.15625 -21.34375 C 19.988281 -24.5 21.015625 -26.351562 21.234375 -26.90625 C 21.453125 -27.457031 21.5625 -27.988281 21.5625 -28.5 C 21.5625 -30.769531 18.628906 -31.976562 12.765625 -32.125 L 11.4375 -28.609375 C 6.820312 -16.503906 2.382812 -8.398438 -1.875 -4.296875 C -2.601562 -3.628906 -2.96875 -3.847656 -2.96875 -4.953125 C -2.96875 -5.171875 -2.894531 -5.425781 -2.75 -5.71875 C 1.351562 -11.144531 4.910156 -17.5625 7.921875 -24.96875 C 10.929688 -32.382812 13.019531 -39.429688 14.1875 -46.109375 C 14.632812 -48.378906 15.660156 -49.515625 17.265625 -49.515625 C 18.878906 -49.515625 20.054688 -48.488281 20.796875 -46.4375 C 21.015625 -45.769531 21.125 -45 21.125 -44.125 Z M 21.125 -44.125 "/></g></g></g><g fill="#ff9100" fill-opacity="1"><g transform="translate(242.632098, 170.758436)"><g><path d="M 11.109375 -16.9375 C 10.085938 -14.445312 9.578125 -11.660156 9.578125 -8.578125 C 9.578125 -6.523438 10.035156 -4.894531 10.953125 -3.6875 C 11.867188 -2.476562 13.171875 -1.875 14.859375 -1.875 C 21.523438 -1.875 27.578125 -8.144531 33.015625 -20.6875 C 33.523438 -21.863281 34.144531 -22.375 34.875 -22.21875 C 35.164062 -22.144531 35.3125 -21.960938 35.3125 -21.671875 C 35.3125 -21.378906 34.488281 -19.453125 32.84375 -15.890625 C 31.195312 -12.335938 29.53125 -9.460938 27.84375 -7.265625 C 24.09375 -2.128906 19.46875 0.4375 13.96875 0.4375 C 11.039062 0.4375 8.546875 -0.515625 6.484375 -2.421875 C 4.429688 -4.328125 3.40625 -6.929688 3.40625 -10.234375 C 3.40625 -13.535156 4.191406 -17.035156 5.765625 -20.734375 C 7.347656 -24.441406 9.492188 -27.890625 12.203125 -31.078125 C 14.921875 -34.273438 18.039062 -36.609375 21.5625 -38.078125 C 23.25 -38.804688 24.863281 -39.171875 26.40625 -39.171875 C 27.945312 -39.171875 29.378906 -38.726562 30.703125 -37.84375 C 31.941406 -36.820312 32.5625 -35.6875 32.5625 -34.4375 C 32.5625 -30.039062 29.921875 -25.820312 24.640625 -21.78125 C 23.023438 -20.539062 20.75 -19.421875 17.8125 -18.421875 C 14.882812 -17.429688 12.648438 -16.9375 11.109375 -16.9375 Z M 29.59375 -34.546875 C 29.59375 -36.015625 29.007812 -36.75 27.84375 -36.75 C 25.78125 -36.75 22.660156 -34.21875 18.484375 -29.15625 C 15.992188 -26.070312 13.796875 -22.625 11.890625 -18.8125 C 13.128906 -18.8125 14.941406 -19.25 17.328125 -20.125 C 19.710938 -21.007812 21.785156 -22.1875 23.546875 -23.65625 C 27.578125 -27.101562 29.59375 -30.734375 29.59375 -34.546875 Z M 29.59375 -34.546875 "/></g></g></g><g fill="#ff9100" fill-opacity="1"><g transform="translate(269.704266, 170.758436)"><g/></g></g><g fill="#015b30" fill-opacity="1"><g transform="translate(103.897571, 252.863494)"><g><path d="M 110.328125 -67.09375 C 95.515625 -74.425781 83.597656 -78.09375 74.578125 -78.09375 C 65.554688 -78.09375 58.003906 -75.53125 51.921875 -70.40625 C 46.128906 -65.488281 43.234375 -60.207031 43.234375 -54.5625 C 43.234375 -51.625 44.296875 -49.5 46.421875 -48.1875 C 49.273438 -46.570312 51.988281 -45.765625 54.5625 -45.765625 C 55.507812 -45.765625 56.460938 -45.875 57.421875 -46.09375 C 60.796875 -46.894531 63.65625 -48.25 66 -50.15625 C 68.34375 -52.0625 69.515625 -53.601562 69.515625 -54.78125 C 69.515625 -55.957031 69.863281 -56.765625 70.5625 -57.203125 C 71.257812 -57.640625 71.609375 -57.492188 71.609375 -56.765625 C 71.609375 -56.316406 71.5 -55.800781 71.28125 -55.21875 C 69.738281 -50.007812 66.144531 -46.453125 60.5 -44.546875 C 58.082031 -43.742188 55.585938 -43.34375 53.015625 -43.34375 C 50.453125 -43.34375 47.925781 -44.113281 45.4375 -45.65625 C 40.738281 -48.289062 38.390625 -52.320312 38.390625 -57.75 C 38.390625 -64.28125 41.394531 -70.21875 47.40625 -75.5625 C 53.425781 -80.914062 60.757812 -83.59375 69.40625 -83.59375 C 73.664062 -83.59375 77.957031 -82.972656 82.28125 -81.734375 C 93.132812 -78.796875 102.960938 -74.539062 111.765625 -68.96875 C 114.035156 -71.457031 116.378906 -72.703125 118.796875 -72.703125 C 121.515625 -72.703125 122.910156 -71.785156 122.984375 -69.953125 C 123.054688 -69.148438 122.796875 -68.785156 122.203125 -68.859375 C 121.835938 -68.929688 121.4375 -69.222656 121 -69.734375 C 120.414062 -69.953125 119.863281 -70.0625 119.34375 -70.0625 C 117.738281 -70.0625 116.09375 -69.257812 114.40625 -67.65625 C 119.832031 -64.9375 126.210938 -62.625 133.546875 -60.71875 C 136.398438 -60.0625 138.671875 -59.734375 140.359375 -59.734375 C 142.046875 -59.734375 143.328125 -59.769531 144.203125 -59.84375 C 147.429688 -60.207031 149.523438 -61.414062 150.484375 -63.46875 C 150.992188 -64.570312 151.445312 -65.25 151.84375 -65.5 C 152.25 -65.757812 152.488281 -65.632812 152.5625 -65.125 C 152.5625 -64.90625 152.5625 -64.609375 152.5625 -64.234375 C 152.5625 -61.234375 151.023438 -58.960938 147.953125 -57.421875 C 146.046875 -56.460938 144.25 -55.984375 142.5625 -55.984375 C 140.875 -55.984375 139.039062 -56.148438 137.0625 -56.484375 C 135.082031 -56.816406 132.515625 -57.492188 129.359375 -58.515625 C 126.203125 -59.546875 123.632812 -60.5 121.65625 -61.375 C 119.675781 -62.257812 117.734375 -63.175781 115.828125 -64.125 L 112.75 -65.671875 C 108.9375 -61.347656 104.867188 -53.90625 100.546875 -43.34375 C 99.148438 -39.820312 98.34375 -37.804688 98.125 -37.296875 C 102.375 -36.703125 106.296875 -36.40625 109.890625 -36.40625 C 113.484375 -36.40625 116.320312 -36.457031 118.40625 -36.5625 C 120.5 -36.675781 121.582031 -36.441406 121.65625 -35.859375 C 121.726562 -34.242188 116.265625 -33.4375 105.265625 -33.4375 C 101.742188 -33.4375 98.921875 -33.582031 96.796875 -33.875 C 92.253906 -21.414062 87.707031 -12.175781 83.15625 -6.15625 C 81.25 -3.664062 78.863281 -1.046875 76 1.703125 C 73.144531 4.453125 70.101562 6.671875 66.875 8.359375 C 59.613281 12.316406 51.507812 14.296875 42.5625 14.296875 C 33.625 14.296875 26.035156 12.316406 19.796875 8.359375 C 10.335938 2.492188 5.609375 -5.972656 5.609375 -17.046875 C 5.609375 -20.785156 6.234375 -24.785156 7.484375 -29.046875 C 8.359375 -31.828125 9.988281 -34.28125 12.375 -36.40625 C 14.757812 -38.53125 16.757812 -39.832031 18.375 -40.3125 C 19.988281 -40.789062 20.738281 -40.882812 20.625 -40.59375 C 20.507812 -40.300781 19.242188 -39.3125 16.828125 -37.625 C 12.066406 -34.175781 9.242188 -29.921875 8.359375 -24.859375 C 7.992188 -23.023438 7.8125 -20.894531 7.8125 -18.46875 C 7.8125 -16.050781 8.359375 -13.414062 9.453125 -10.5625 C 12.460938 -2.789062 18.695312 2.925781 28.15625 6.59375 C 32.632812 8.28125 37.4375 9.125 42.5625 9.125 C 47.695312 9.125 52.796875 8.097656 57.859375 6.046875 C 62.921875 3.992188 67.613281 0.914062 71.9375 -3.1875 C 80.375 -11.1875 87.34375 -21.523438 92.84375 -34.203125 L 85.796875 -34.3125 C 77.222656 -34.3125 71.578125 -32.332031 68.859375 -28.375 C 68.203125 -27.570312 67.671875 -27.367188 67.265625 -27.765625 C 66.859375 -28.171875 66.800781 -28.707031 67.09375 -29.375 C 68.707031 -32.894531 70.976562 -35.421875 73.90625 -36.953125 C 76.84375 -38.492188 79.757812 -39.265625 82.65625 -39.265625 C 85.5625 -39.265625 89.46875 -38.9375 94.375 -38.28125 C 96.65625 -43.851562 99.535156 -49.644531 103.015625 -55.65625 C 106.492188 -61.675781 108.929688 -65.488281 110.328125 -67.09375 Z M 110.328125 -67.09375 "/></g></g></g><g fill="#015b30" fill-opacity="1"><g transform="translate(219.169391, 252.863494)"><g><path d="M 26.296875 -38.5 C 31.640625 -38.5 34.3125 -35.125 34.3125 -28.375 C 34.3125 -25.300781 33.507812 -22.003906 31.90625 -18.484375 C 29.84375 -13.710938 26.757812 -9.382812 22.65625 -5.5 C 23.613281 -3.664062 25.335938 -2.75 27.828125 -2.75 C 29.804688 -2.75 31.675781 -3.738281 33.4375 -5.71875 C 35.632812 -7.988281 37.207031 -9.984375 38.15625 -11.703125 C 39.113281 -13.429688 39.8125 -14.695312 40.25 -15.5 C 40.695312 -16.3125 41.269531 -17.46875 41.96875 -18.96875 C 42.664062 -20.476562 43.085938 -21.394531 43.234375 -21.71875 C 43.378906 -22.050781 43.632812 -22.21875 44 -22.21875 C 44.726562 -22.289062 45.09375 -22.035156 45.09375 -21.453125 C 45.09375 -21.234375 45.019531 -20.976562 44.875 -20.6875 L 44.21875 -19.140625 C 43.78125 -18.109375 43.453125 -17.375 43.234375 -16.9375 C 43.015625 -16.5 42.628906 -15.710938 42.078125 -14.578125 C 41.523438 -13.441406 41.046875 -12.539062 40.640625 -11.875 C 40.242188 -11.21875 39.695312 -10.335938 39 -9.234375 C 38.300781 -8.140625 37.675781 -7.257812 37.125 -6.59375 C 36.570312 -5.9375 35.890625 -5.203125 35.078125 -4.390625 C 34.273438 -3.585938 33.507812 -2.96875 32.78125 -2.53125 C 30.945312 -1.425781 29.222656 -0.875 27.609375 -0.875 C 24.597656 -0.875 22.25 -1.828125 20.5625 -3.734375 C 17.195312 -1.242188 14.082031 0 11.21875 0 C 5.863281 0 3.1875 -3.375 3.1875 -10.125 C 3.1875 -13.195312 3.992188 -16.492188 5.609375 -20.015625 C 7.804688 -25.148438 10.90625 -29.515625 14.90625 -33.109375 C 18.90625 -36.703125 22.703125 -38.5 26.296875 -38.5 Z M 27.5 -35.09375 C 25.519531 -35.09375 23.171875 -33.769531 20.453125 -31.125 C 17.742188 -28.488281 15.328125 -24.894531 13.203125 -20.34375 C 10.628906 -15.070312 9.34375 -10.75 9.34375 -7.375 C 9.34375 -4 10.628906 -2.3125 13.203125 -2.3125 C 15.035156 -2.3125 17.085938 -3.300781 19.359375 -5.28125 C 18.179688 -6.96875 17.59375 -8.765625 17.59375 -10.671875 C 17.738281 -13.828125 19.023438 -15.40625 21.453125 -15.40625 C 22.398438 -15.40625 23.1875 -15.070312 23.8125 -14.40625 C 24.4375 -13.75 24.75 -13.144531 24.75 -12.59375 C 24.75 -12.039062 24.675781 -11.472656 24.53125 -10.890625 C 25.78125 -12.722656 27.207031 -15.328125 28.8125 -18.703125 C 30.644531 -22.441406 31.5625 -26.109375 31.5625 -29.703125 C 31.5625 -33.296875 30.207031 -35.09375 27.5 -35.09375 Z M 27.5 -35.09375 "/></g></g></g><g fill="#015b30" fill-opacity="1"><g transform="translate(256.016778, 252.863494)"><g><path d="M 26.296875 -38.5 C 31.640625 -38.5 34.3125 -35.125 34.3125 -28.375 C 34.3125 -25.300781 33.507812 -22.003906 31.90625 -18.484375 C 29.84375 -13.710938 26.757812 -9.382812 22.65625 -5.5 C 23.613281 -3.664062 25.335938 -2.75 27.828125 -2.75 C 29.804688 -2.75 31.675781 -3.738281 33.4375 -5.71875 C 35.632812 -7.988281 37.207031 -9.984375 38.15625 -11.703125 C 39.113281 -13.429688 39.8125 -14.695312 40.25 -15.5 C 40.695312 -16.3125 41.269531 -17.46875 41.96875 -18.96875 C 42.664062 -20.476562 43.085938 -21.394531 43.234375 -21.71875 C 43.378906 -22.050781 43.632812 -22.21875 44 -22.21875 C 44.726562 -22.289062 45.09375 -22.035156 45.09375 -21.453125 C 45.09375 -21.234375 45.019531 -20.976562 44.875 -20.6875 L 44.21875 -19.140625 C 43.78125 -18.109375 43.453125 -17.375 43.234375 -16.9375 C 43.015625 -16.5 42.628906 -15.710938 42.078125 -14.578125 C 41.523438 -13.441406 41.046875 -12.539062 40.640625 -11.875 C 40.242188 -11.21875 39.695312 -10.335938 39 -9.234375 C 38.300781 -8.140625 37.675781 -7.257812 37.125 -6.59375 C 36.570312 -5.9375 35.890625 -5.203125 35.078125 -4.390625 C 34.273438 -3.585938 33.507812 -2.96875 32.78125 -2.53125 C 30.945312 -1.425781 29.222656 -0.875 27.609375 -0.875 C 24.597656 -0.875 22.25 -1.828125 20.5625 -3.734375 C 17.195312 -1.242188 14.082031 0 11.21875 0 C 5.863281 0 3.1875 -3.375 3.1875 -10.125 C 3.1875 -13.195312 3.992188 -16.492188 5.609375 -20.015625 C 7.804688 -25.148438 10.90625 -29.515625 14.90625 -33.109375 C 18.90625 -36.703125 22.703125 -38.5 26.296875 -38.5 Z M 27.5 -35.09375 C 25.519531 -35.09375 23.171875 -33.769531 20.453125 -31.125 C 17.742188 -28.488281 15.328125 -24.894531 13.203125 -20.34375 C 10.628906 -15.070312 9.34375 -10.75 9.34375 -7.375 C 9.34375 -4 10.628906 -2.3125 13.203125 -2.3125 C 15.035156 -2.3125 17.085938 -3.300781 19.359375 -5.28125 C 18.179688 -6.96875 17.59375 -8.765625 17.59375 -10.671875 C 17.738281 -13.828125 19.023438 -15.40625 21.453125 -15.40625 C 22.398438 -15.40625 23.1875 -15.070312 23.8125 -14.40625 C 24.4375 -13.75 24.75 -13.144531 24.75 -12.59375 C 24.75 -12.039062 24.675781 -11.472656 24.53125 -10.890625 C 25.78125 -12.722656 27.207031 -15.328125 28.8125 -18.703125 C 30.644531 -22.441406 31.5625 -26.109375 31.5625 -29.703125 C 31.5625 -33.296875 30.207031 -35.09375 27.5 -35.09375 Z M 27.5 -35.09375 "/></g></g></g><g fill="#015b30" fill-opacity="1"><g transform="translate(292.864164, 252.863494)"><g><path d="M 29.484375 -6.375 C 29.484375 -4.03125 30.4375 -2.859375 32.34375 -2.859375 C 35.789062 -2.859375 40.375 -8.613281 46.09375 -20.125 C 46.3125 -20.570312 46.507812 -21.015625 46.6875 -21.453125 C 46.875 -21.890625 47.171875 -22.179688 47.578125 -22.328125 C 47.984375 -22.472656 48.257812 -22.378906 48.40625 -22.046875 C 48.550781 -21.722656 48.476562 -21.191406 48.1875 -20.453125 C 42.3125 -6.816406 36.367188 0 30.359375 0 C 28.378906 0 26.800781 -0.878906 25.625 -2.640625 C 24.457031 -4.398438 23.875 -6.140625 23.875 -7.859375 C 23.875 -9.585938 24.054688 -11.1875 24.421875 -12.65625 C 20.171875 -5.613281 16.503906 -1.613281 13.421875 -0.65625 C 12.535156 -0.289062 11.671875 -0.109375 10.828125 -0.109375 C 9.984375 -0.109375 9.160156 -0.21875 8.359375 -0.4375 C 4.765625 -1.394531 2.96875 -4.253906 2.96875 -9.015625 C 2.96875 -12.242188 3.789062 -15.816406 5.4375 -19.734375 C 7.09375 -23.660156 9.421875 -27.421875 12.421875 -31.015625 C 15.429688 -34.609375 19.0625 -37.03125 23.3125 -38.28125 C 24.851562 -38.789062 26.671875 -39.046875 28.765625 -39.046875 C 30.859375 -39.046875 33.1875 -38.382812 35.75 -37.0625 C 40.738281 -46.457031 44.992188 -55.148438 48.515625 -63.140625 C 49.535156 -65.554688 50.539062 -67.113281 51.53125 -67.8125 C 52.519531 -68.507812 53.4375 -68.859375 54.28125 -68.859375 C 55.125 -68.859375 55.632812 -68.859375 55.8125 -68.859375 C 56 -68.859375 56.695312 -68.765625 57.90625 -68.578125 C 59.125 -68.398438 60.0625 -68.347656 60.71875 -68.421875 C 59.03125 -66.878906 54.554688 -59.398438 47.296875 -45.984375 C 38.054688 -28.816406 32.484375 -17.375 30.578125 -11.65625 C 29.847656 -9.53125 29.484375 -7.769531 29.484375 -6.375 Z M 34.875 -35.3125 C 33.914062 -36.257812 32.570312 -36.734375 30.84375 -36.734375 C 29.125 -36.734375 26.726562 -35.453125 23.65625 -32.890625 C 18.738281 -28.785156 14.664062 -23.722656 11.4375 -17.703125 C 9.3125 -13.742188 8.25 -10.484375 8.25 -7.921875 C 8.25 -6.742188 8.488281 -5.675781 8.96875 -4.71875 C 9.445312 -3.769531 10.195312 -3.296875 11.21875 -3.296875 C 13.707031 -3.296875 16.785156 -5.863281 20.453125 -11 C 24.117188 -16.132812 28.925781 -24.238281 34.875 -35.3125 Z M 34.875 -35.3125 "/></g></g></g><g fill="#000000" fill-opacity="1"><g transform="translate(189.056711, 281.336466)"><g><path d="M 0.265625 -12.71875 L 0.265625 -14 L 5.71875 -14 L 5.71875 -12.71875 L 3.78125 -12.71875 L 3.78125 0 L 2.203125 0 L 2.203125 -12.71875 Z M 0.265625 -12.71875 "/></g></g></g><g fill="#000000" fill-opacity="1"><g transform="translate(197.374351, 281.336466)"><g><path d="M 4.59375 -11.09375 L 5 -11.078125 L 4.875 -9.375 C 4.6875 -9.46875 4.507812 -9.515625 4.34375 -9.515625 C 3.320312 -9.515625 2.804688 -8.460938 2.796875 -6.359375 L 2.796875 0 L 1.265625 0 L 1.265625 -10.796875 L 2.203125 -10.796875 L 2.640625 -8.953125 C 2.910156 -10.378906 3.5625 -11.09375 4.59375 -11.09375 Z M 4.59375 -11.09375 "/></g></g></g><g fill="#000000" fill-opacity="1"><g transform="translate(204.87232, 281.336466)"><g><path d="M 0.90625 -3.34375 C 0.90625 -4.601562 1.085938 -5.460938 1.453125 -5.921875 C 1.828125 -6.390625 2.359375 -6.625 3.046875 -6.625 C 3.742188 -6.625 4.296875 -6.351562 4.703125 -5.8125 L 4.703125 -7.921875 C 4.703125 -9.203125 4.300781 -9.84375 3.5 -9.84375 C 2.820312 -9.84375 2.175781 -9.445312 1.5625 -8.65625 L 1.015625 -9.78125 C 1.328125 -10.15625 1.71875 -10.46875 2.1875 -10.71875 C 2.664062 -10.96875 3.148438 -11.09375 3.640625 -11.09375 C 5.367188 -11.09375 6.234375 -9.921875 6.234375 -7.578125 L 6.234375 0 L 5.296875 0 L 4.984375 -1.296875 C 4.835938 -0.765625 4.59375 -0.363281 4.25 -0.09375 C 3.90625 0.164062 3.519531 0.296875 3.09375 0.296875 C 2.375 0.296875 1.828125 0.0664062 1.453125 -0.390625 C 1.085938 -0.847656 0.90625 -1.710938 0.90625 -2.984375 Z M 3.421875 -0.953125 C 3.804688 -0.953125 4.109375 -1.09375 4.328125 -1.375 C 4.546875 -1.65625 4.671875 -2.164062 4.703125 -2.90625 L 4.703125 -3.4375 C 4.671875 -4.226562 4.546875 -4.773438 4.328125 -5.078125 C 4.109375 -5.390625 3.804688 -5.546875 3.421875 -5.546875 C 2.753906 -5.546875 2.421875 -4.910156 2.421875 -3.640625 L 2.421875 -2.859375 C 2.421875 -1.585938 2.753906 -0.953125 3.421875 -0.953125 Z M 3.421875 -0.953125 "/></g></g></g><g fill="#000000" fill-opacity="1"><g transform="translate(214.569421, 281.336466)"><g><path d="M 1.265625 0 L 1.265625 -10.796875 L 2.796875 -10.796875 L 2.796875 0 Z M 1.203125 -12.921875 L 1.203125 -14.796875 L 2.859375 -14.796875 L 2.859375 -12.921875 Z M 1.203125 -12.921875 "/></g></g></g><g fill="#000000" fill-opacity="1"><g transform="translate(220.967818, 281.336466)"><g><path d="M 0.40625 -9.5625 L 0.40625 -10.796875 L 1.453125 -10.796875 L 2 -13.453125 L 2.921875 -13.453125 L 2.921875 -10.796875 L 4.34375 -10.796875 L 4.34375 -9.5625 L 2.921875 -9.5625 L 2.921875 -2.046875 C 2.921875 -1.335938 3.113281 -0.984375 3.5 -0.984375 C 3.75 -0.984375 4.015625 -1.085938 4.296875 -1.296875 L 4.59375 -0.125 C 4.144531 0.15625 3.679688 0.296875 3.203125 0.296875 C 2.003906 0.296875 1.40625 -0.585938 1.40625 -2.359375 L 1.40625 -9.5625 Z M 0.40625 -9.5625 "/></g></g></g><g fill="#000000" fill-opacity="1"><g transform="translate(228.085934, 281.336466)"><g><path d="M 6.5625 -2.796875 C 6.46875 -1.640625 6.191406 -0.832031 5.734375 -0.375 C 5.285156 0.0703125 4.628906 0.296875 3.765625 0.296875 C 2.910156 0.296875 2.234375 -0.00390625 1.734375 -0.609375 C 1.234375 -1.210938 0.984375 -2.3125 0.984375 -3.90625 L 0.984375 -6.90625 C 0.984375 -8.488281 1.234375 -9.582031 1.734375 -10.1875 C 2.234375 -10.789062 2.9375 -11.09375 3.84375 -11.09375 C 4.75 -11.09375 5.429688 -10.789062 5.890625 -10.1875 C 6.359375 -9.59375 6.59375 -8.5 6.59375 -6.90625 L 6.59375 -4.765625 L 2.5 -4.765625 L 2.5 -3.625 C 2.5 -1.832031 2.925781 -0.9375 3.78125 -0.9375 C 4.195312 -0.9375 4.515625 -1.082031 4.734375 -1.375 C 4.960938 -1.664062 5.125 -2.210938 5.21875 -3.015625 Z M 2.5 -7.1875 L 2.5 -6.046875 L 5.0625 -6.046875 L 5.0625 -7.1875 C 5.0625 -8.96875 4.640625 -9.859375 3.796875 -9.859375 C 2.929688 -9.859375 2.5 -8.96875 2.5 -7.1875 Z M 2.5 -7.1875 "/></g></g></g><g fill="#000000" fill-opacity="1"><g transform="translate(238.002945, 281.336466)"><g><path d="M 5.015625 -10.796875 L 6.546875 -10.796875 L 6.546875 0 L 5.59375 0 L 5.28125 -1.3125 C 4.96875 -0.238281 4.320312 0.296875 3.34375 0.296875 C 2.601562 0.296875 2.046875 0.0703125 1.671875 -0.375 C 1.304688 -0.832031 1.125 -1.703125 1.125 -2.984375 L 1.125 -10.796875 L 2.640625 -10.796875 L 2.640625 -2.859375 C 2.640625 -2.128906 2.726562 -1.628906 2.90625 -1.359375 C 3.09375 -1.085938 3.363281 -0.953125 3.71875 -0.953125 C 4.53125 -0.953125 4.960938 -1.601562 5.015625 -2.90625 Z M 5.015625 -10.796875 "/></g></g></g><g fill="#000000" fill-opacity="1"><g transform="translate(248.159868, 281.336466)"><g><path d="M 4.59375 -11.09375 L 5 -11.078125 L 4.875 -9.375 C 4.6875 -9.46875 4.507812 -9.515625 4.34375 -9.515625 C 3.320312 -9.515625 2.804688 -8.460938 2.796875 -6.359375 L 2.796875 0 L 1.265625 0 L 1.265625 -10.796875 L 2.203125 -10.796875 L 2.640625 -8.953125 C 2.910156 -10.378906 3.5625 -11.09375 4.59375 -11.09375 Z M 4.59375 -11.09375 "/></g></g></g><g fill="#000000" fill-opacity="1"><g transform="translate(255.657836, 281.336466)"><g/></g></g><g fill="#000000" fill-opacity="1"><g transform="translate(260.876702, 281.336466)"><g><path d="M 1.265625 0 L 1.265625 -14 L 2.859375 -14 L 2.859375 0 Z M 1.265625 0 "/></g></g></g><g fill="#000000" fill-opacity="1"><g transform="translate(267.335078, 281.336466)"><g><path d="M 1.875 -10.796875 L 3.421875 -2.421875 L 4.984375 -10.796875 L 6.515625 -10.796875 L 4.265625 0 L 2.59375 0 L 0.3125 -10.796875 Z M 1.875 -10.796875 "/></g></g></g><g fill="#000000" fill-opacity="1"><g transform="translate(276.512386, 281.336466)"><g><path d="M 6.59375 -6.90625 L 6.59375 -3.90625 C 6.59375 -2.3125 6.347656 -1.210938 5.859375 -0.609375 C 5.378906 -0.00390625 4.6875 0.296875 3.78125 0.296875 C 2.882812 0.296875 2.191406 -0.00390625 1.703125 -0.609375 C 1.222656 -1.210938 0.984375 -2.3125 0.984375 -3.90625 L 0.984375 -6.90625 C 0.984375 -8.488281 1.222656 -9.582031 1.703125 -10.1875 C 2.191406 -10.789062 2.882812 -11.09375 3.78125 -11.09375 C 4.6875 -11.09375 5.378906 -10.789062 5.859375 -10.1875 C 6.347656 -9.582031 6.59375 -8.488281 6.59375 -6.90625 Z M 5.0625 -3.625 L 5.0625 -7.1875 C 5.0625 -8.96875 4.640625 -9.859375 3.796875 -9.859375 C 2.929688 -9.859375 2.5 -8.96875 2.5 -7.1875 L 2.5 -3.625 C 2.5 -1.832031 2.929688 -0.9375 3.796875 -0.9375 C 4.640625 -0.9375 5.0625 -1.832031 5.0625 -3.625 Z M 5.0625 -3.625 "/></g></g></g><g fill="#000000" fill-opacity="1"><g transform="translate(286.4294, 281.336466)"><g><path d="M 1.265625 0 L 1.265625 -10.796875 L 2.796875 -10.796875 L 2.796875 0 Z M 1.203125 -12.921875 L 1.203125 -14.796875 L 2.859375 -14.796875 L 2.859375 -12.921875 Z M 1.203125 -12.921875 "/></g></g></g><g fill="#000000" fill-opacity="1"><g transform="translate(292.827803, 281.336466)"><g><path d="M 4.59375 -11.09375 L 5 -11.078125 L 4.875 -9.375 C 4.6875 -9.46875 4.507812 -9.515625 4.34375 -9.515625 C 3.320312 -9.515625 2.804688 -8.460938 2.796875 -6.359375 L 2.796875 0 L 1.265625 0 L 1.265625 -10.796875 L 2.203125 -10.796875 L 2.640625 -8.953125 C 2.910156 -10.378906 3.5625 -11.09375 4.59375 -11.09375 Z M 4.59375 -11.09375 "/></g></g></g><g fill="#000000" fill-opacity="1"><g transform="translate(300.325777, 281.336466)"><g><path d="M 1.265625 0 L 1.265625 -10.796875 L 2.796875 -10.796875 L 2.796875 0 Z M 1.203125 -12.921875 L 1.203125 -14.796875 L 2.859375 -14.796875 L 2.859375 -12.921875 Z M 1.203125 -12.921875 "/></g></g></g><g fill="#000000" fill-opacity="1"><g transform="translate(306.72418, 281.336466)"><g><path d="M 6.5625 -2.796875 C 6.46875 -1.640625 6.191406 -0.832031 5.734375 -0.375 C 5.285156 0.0703125 4.628906 0.296875 3.765625 0.296875 C 2.910156 0.296875 2.234375 -0.00390625 1.734375 -0.609375 C 1.234375 -1.210938 0.984375 -2.3125 0.984375 -3.90625 L 0.984375 -6.90625 C 0.984375 -8.488281 1.234375 -9.582031 1.734375 -10.1875 C 2.234375 -10.789062 2.9375 -11.09375 3.84375 -11.09375 C 4.75 -11.09375 5.429688 -10.789062 5.890625 -10.1875 C 6.359375 -9.59375 6.59375 -8.5 6.59375 -6.90625 L 6.59375 -4.765625 L 2.5 -4.765625 L 2.5 -3.625 C 2.5 -1.832031 2.925781 -0.9375 3.78125 -0.9375 C 4.195312 -0.9375 4.515625 -1.082031 4.734375 -1.375 C 4.960938 -1.664062 5.125 -2.210938 5.21875 -3.015625 Z M 2.5 -7.1875 L 2.5 -6.046875 L 5.0625 -6.046875 L 5.0625 -7.1875 C 5.0625 -8.96875 4.640625 -9.859375 3.796875 -9.859375 C 2.929688 -9.859375 2.5 -8.96875 2.5 -7.1875 Z M 2.5 -7.1875 "/></g></g></g><g fill="#000000" fill-opacity="1"><g transform="translate(316.641194, 281.336466)"><g><path d="M 2.796875 0 L 1.265625 0 L 1.265625 -10.796875 L 2.203125 -10.796875 L 2.59375 -9.078125 C 2.875 -10.421875 3.578125 -11.09375 4.703125 -11.09375 C 5.390625 -11.09375 5.914062 -10.785156 6.28125 -10.171875 C 6.65625 -9.566406 6.84375 -8.445312 6.84375 -6.8125 L 6.84375 0 L 5.296875 0 L 5.296875 -7.359375 C 5.296875 -9.023438 4.96875 -9.859375 4.3125 -9.859375 C 3.332031 -9.859375 2.828125 -8.429688 2.796875 -5.578125 Z M 2.796875 0 "/></g></g></g><g fill="#000000" fill-opacity="1"><g transform="translate(326.939518, 281.336466)"><g/></g></g></svg>